<?xml version="1.0" standalone="no"?>
<!DOCTYPE svg PUBLIC "-//W3C//DTD SVG 20010904//EN"
 "http://www.w3.org/TR/2001/REC-SVG-20010904/DTD/svg10.dtd">
<svg version="1.0" xmlns="http://www.w3.org/2000/svg"
 width="225.000000pt" height="225.000000pt" viewBox="0 0 225.000000 225.000000"
 preserveAspectRatio="xMidYMid meet">

<g transform="translate(0.000000,225.000000) scale(0.100000,-0.100000)"
fill="#000000" stroke="none">
<path d="M1010 2220 c-413 -43 -767 -297 -928 -666 -66 -152 -77 -210 -77
-424 0 -191 1 -197 33 -303 124 -411 457 -711 882 -793 100 -19 327 -18 422 1
240 50 429 153 599 326 143 145 240 316 289 507 20 75 21 103 18 285 -4 188
-6 207 -32 282 -112 326 -346 576 -656 701 -176 71 -376 101 -550 84z m342
-44 c435 -103 743 -394 850 -803 73 -280 20 -577 -148 -833 -153 -234 -412
-410 -697 -474 -15 -4 -73 -11 -129 -16 -541 -52 -1038 300 -1175 830 -24 91
-27 124 -27 250 0 127 4 158 28 250 109 407 411 698 816 789 52 11 111 23 130
25 69 8 286 -3 352 -18z"/>
<path d="M1051 2121 l-44 -6 2 -80 c3 -106 9 -111 119 -89 40 8 23 23 -30 26
-45 3 -53 6 -53 23 0 16 8 21 39 25 55 7 58 28 4 32 -30 2 -44 8 -46 19 -2 13
8 18 47 24 28 4 51 10 51 15 0 8 -27 21 -38 18 -4 0 -27 -4 -51 -7z"/>
<path d="M1216 2088 c-20 -94 -26 -139 -20 -149 10 -17 34 18 34 50 0 14 4 32
8 39 9 13 18 -1 46 -70 16 -40 41 -50 49 -20 14 48 29 154 23 159 -11 12 -29
-15 -35 -53 -3 -20 -10 -37 -16 -37 -5 1 -19 24 -30 52 -21 55 -51 69 -59 29z"/>
<path d="M825 2080 c-50 -20 -63 -87 -26 -138 23 -33 52 -42 97 -30 46 12 67
40 59 78 -6 26 -11 31 -28 26 -12 -3 -30 -6 -39 -6 -10 0 -18 -7 -18 -15 0 -9
10 -15 26 -15 20 0 25 -4 20 -16 -3 -9 -6 -18 -6 -20 0 -2 -15 -4 -34 -4 -57
0 -88 67 -49 105 12 13 26 15 60 10 46 -7 58 6 24 25 -23 12 -58 12 -86 0z"/>
<path d="M1432 2049 c-5 -13 -19 -50 -31 -82 -11 -32 -21 -60 -21 -62 0 -5
108 -45 121 -45 23 0 1 24 -32 35 -26 9 -35 18 -37 40 -3 25 -1 27 20 21 62
-18 81 -19 76 -6 -2 8 -20 19 -39 25 -34 12 -50 37 -30 49 6 4 27 0 47 -9 45
-19 54 -19 54 -1 0 8 -19 21 -42 29 -24 8 -51 18 -60 22 -13 5 -20 1 -26 -16z"/>
<path d="M1586 1909 c-36 -53 -45 -73 -36 -79 8 -5 22 2 38 21 32 39 50 24 54
-44 2 -40 7 -53 21 -55 14 -3 17 4 17 42 0 39 3 46 20 46 27 0 57 47 43 69
-12 19 -83 70 -98 70 -5 0 -32 -31 -59 -70z m103 13 c23 -14 27 -21 20 -35
-13 -22 -28 -21 -59 2 -20 16 -22 21 -11 35 17 20 14 20 50 -2z"/>
<path d="M520 1931 l-35 -28 48 -72 c26 -39 50 -71 54 -71 13 0 93 66 98 81 8
25 -5 49 -31 55 -14 4 -24 14 -24 23 0 48 -60 54 -110 12z m80 -16 c0 -8 -11
-22 -25 -31 -38 -25 -64 4 -27 32 23 18 52 17 52 -1z m50 -59 c0 -18 -27 -46
-44 -46 -6 0 -17 5 -24 12 -9 9 -8 16 5 30 19 22 63 24 63 4z"/>
<path d="M1005 1851 c-155 -19 -348 -120 -455 -237 -79 -87 -151 -234 -171
-352 -16 -92 -6 -282 19 -352 73 -206 208 -363 387 -450 107 -52 180 -71 301
-77 125 -7 213 7 323 52 115 47 198 103 272 186 81 89 121 152 162 254 32 79
32 82 32 250 0 167 -1 171 -31 246 -91 225 -291 405 -514 462 -69 18 -245 28
-325 18z m324 -51 c148 -44 223 -90 341 -211 102 -104 180 -274 180 -391 l0
-58 -155 0 c-85 0 -156 1 -157 3 -1 1 -5 118 -8 260 l-5 257 -84 -67 c-47 -38
-110 -88 -142 -113 -31 -25 -121 -97 -200 -160 -202 -162 -225 -180 -238 -180
-11 0 -15 88 -17 370 0 74 -1 141 -2 148 -1 8 -22 12 -62 12 l-60 0 0 -244 c0
-134 -3 -251 -6 -260 -5 -14 -29 -16 -159 -16 -139 0 -153 2 -157 18 -9 32 41
213 79 286 42 81 177 224 255 269 61 37 198 86 267 97 87 14 250 4 330 -20z
m-609 -955 l0 -265 60 0 60 0 0 238 c0 234 4 282 21 282 5 0 116 -85 247 -190
130 -104 270 -216 310 -247 40 -32 79 -64 87 -70 7 -7 16 -13 19 -13 3 0 6
103 6 229 0 126 3 243 6 260 l6 31 154 0 154 0 0 -53 c0 -91 -67 -258 -138
-346 -104 -128 -233 -217 -376 -258 -110 -32 -294 -34 -410 -3 -134 35 -249
107 -344 214 -70 80 -115 153 -143 233 -25 73 -49 192 -42 209 4 11 37 14 164
14 l159 0 0 -265z"/>
<path d="M400 1826 c0 -8 20 -31 45 -52 32 -26 45 -43 43 -58 -5 -37 -44 -31
-99 15 -37 31 -53 39 -62 30 -8 -8 3 -23 44 -61 66 -60 106 -67 138 -21 32 44
26 67 -26 116 -48 45 -83 58 -83 31z"/>
<path d="M1825 1795 c-16 -8 -54 -24 -82 -36 -61 -25 -68 -39 -20 -39 44 0 81
-33 67 -59 -7 -14 -6 -22 3 -30 18 -14 101 151 84 168 -13 13 -14 13 -52 -4z
m15 -42 c-1 -16 -26 -40 -37 -36 -19 7 -16 31 5 36 28 7 32 7 32 0z"/>
<path d="M1900 1633 c-36 -20 -67 -38 -70 -40 -2 -2 8 -28 24 -58 19 -36 32
-52 42 -48 11 4 10 12 -8 44 -12 21 -18 42 -14 46 4 4 32 21 63 38 54 29 68
47 41 52 -7 2 -42 -13 -78 -34z"/>
<path d="M387 1575 c-9 -19 -21 -35 -26 -35 -6 0 -33 14 -61 30 -54 32 -80 38
-80 18 0 -13 128 -88 149 -88 11 0 61 80 61 98 0 25 -27 10 -43 -23z"/>
<path d="M172 1480 c-32 -30 -30 -84 4 -115 33 -31 57 -38 99 -31 42 8 71 62
57 104 -15 45 -37 34 -37 -18 0 -40 -3 -45 -24 -48 -35 -5 -69 6 -80 27 -14
25 -3 58 20 64 24 6 25 37 1 37 -10 0 -28 -9 -40 -20z"/>
<path d="M1920 1395 c0 -7 13 -15 29 -18 36 -8 51 -60 24 -89 -12 -13 -13 -22
-6 -29 8 -8 31 6 82 47 39 32 71 62 71 66 0 16 -38 26 -117 31 -64 4 -83 2
-83 -8z m140 -34 c0 -9 -24 -21 -41 -21 -5 0 -9 7 -9 15 0 9 9 15 25 15 14 0
25 -4 25 -9z"/>
<path d="M2109 1226 c-2 -3 -32 -6 -66 -7 -34 -1 -66 -5 -71 -8 -13 -9 1 -114
16 -119 8 -2 12 10 12 41 0 44 1 45 38 51 20 3 54 6 75 6 31 0 38 3 35 17 -3
17 -29 29 -39 19z"/>
<path d="M143 1200 c-46 -19 -57 -89 -22 -134 17 -22 28 -26 69 -26 68 0 95
24 95 84 0 27 -6 51 -15 61 -19 18 -97 28 -127 15z m98 -40 c21 -12 26 -52 7
-68 -7 -6 -30 -13 -51 -17 -31 -6 -41 -4 -52 11 -18 24 -19 71 -2 77 22 9 78
7 98 -3z"/>
<path d="M2045 1048 c-22 -5 -50 -11 -62 -14 -13 -2 -23 -12 -23 -22 0 -20
151 -99 169 -88 18 12 3 25 -56 52 -31 13 -53 27 -50 30 3 3 32 11 63 18 65
12 87 37 32 35 -18 -1 -51 -5 -73 -11z"/>
<path d="M173 988 c-61 -9 -79 -22 -48 -34 27 -11 175 17 175 32 0 16 -32 16
-127 2z"/>
<path d="M195 908 c-45 -24 -56 -64 -34 -127 13 -37 27 -38 119 -7 72 24 74
28 44 98 -21 47 -80 63 -129 36z m103 -57 c10 -27 8 -29 -28 -40 -55 -16 -78
-14 -85 10 -10 31 21 59 66 59 32 0 38 -4 47 -29z"/>
<path d="M1925 867 c-24 -58 -29 -87 -13 -87 7 0 20 19 29 43 12 35 18 42 39
39 33 -4 34 -6 17 -50 -15 -38 -14 -52 4 -52 5 0 14 18 20 40 9 28 17 40 28
38 16 -3 21 -42 10 -78 -2 -9 0 -18 5 -20 8 -4 43 78 45 106 1 9 -136 54 -163
54 -4 0 -13 -15 -21 -33z"/>
<path d="M334 735 c-16 -21 -41 -52 -56 -70 -56 -65 -28 -90 77 -69 104 20
103 20 96 -23 -5 -29 -12 -38 -36 -46 -68 -22 -71 -45 -14 -104 47 -50 50 -49
124 27 41 41 47 52 35 60 -10 6 -21 3 -37 -12 -31 -29 -47 -15 -39 39 5 36 2
50 -16 74 -13 17 -31 29 -45 29 -31 0 -66 55 -52 82 6 11 6 25 1 34 -8 14 -14
10 -38 -21z m16 -89 c0 -13 -40 -30 -49 -21 -2 3 4 14 14 25 18 20 35 18 35
-4z m105 -176 c14 -15 16 -23 7 -32 -14 -14 -62 15 -62 37 0 22 34 18 55 -5z"/>
<path d="M1885 722 c8 -49 -21 -92 -59 -85 -21 4 -45 -12 -34 -23 10 -9 181
-42 194 -37 8 3 14 12 14 20 0 17 -101 162 -113 163 -5 0 -6 -17 -2 -38z m65
-106 c0 -7 -49 0 -58 9 -2 2 2 13 8 26 l12 22 19 -24 c10 -13 19 -28 19 -33z"/>
<path d="M1758 578 c-3 -7 6 -21 19 -31 36 -29 23 -41 -45 -47 -71 -6 -87 -24
-26 -28 38 -3 41 -6 50 -40 7 -31 14 -38 38 -40 22 -3 37 5 67 34 36 35 50 64
32 64 -5 0 -32 23 -61 50 -55 52 -68 58 -74 38z m91 -102 c9 -11 6 -18 -15
-35 -29 -22 -44 -20 -44 8 0 35 38 53 59 27z"/>
<path d="M616 381 c-6 -9 35 -41 53 -41 5 0 11 7 15 15 9 24 -54 49 -68 26z"/>
<path d="M782 332 c-11 -31 -23 -64 -26 -73 -6 -12 3 -20 34 -33 22 -9 47 -16
55 -16 25 0 17 17 -15 30 -34 14 -36 21 -15 80 18 52 19 57 1 63 -10 4 -20
-10 -34 -51z"/>
<path d="M1564 366 c-14 -11 -16 -18 -8 -26 14 -14 64 7 64 27 0 17 -31 17
-56 -1z"/>
<path d="M1366 358 c-3 -7 -7 -46 -10 -85 -5 -61 -4 -73 9 -73 8 0 15 7 15 15
0 25 57 44 91 32 15 -6 31 -9 33 -6 8 7 -108 129 -122 129 -7 0 -14 -6 -16
-12z m52 -80 c-22 -13 -28 -9 -28 19 0 26 0 26 20 8 16 -14 17 -20 8 -27z"/>
<path d="M903 300 c-14 -71 -7 -97 30 -109 50 -18 63 -14 80 27 25 58 32 112
15 112 -10 0 -19 -19 -27 -54 -13 -57 -33 -75 -58 -54 -14 11 -12 73 4 114 3
9 -2 14 -15 14 -15 0 -21 -10 -29 -50z"/>
<path d="M1267 333 c-4 -3 -7 -18 -7 -32 0 -14 -4 -32 -9 -40 -7 -12 -13 -7
-27 21 -15 33 -21 37 -63 40 -71 6 -89 0 -96 -33 -9 -40 -7 -44 16 -41 25 4
50 -15 42 -34 -6 -17 -35 -18 -51 -2 -16 16 -29 1 -16 -20 6 -9 25 -18 42 -20
26 -3 35 2 51 28 l19 32 7 -31 c4 -17 13 -31 21 -31 11 0 13 9 8 42 -8 47 6
46 26 -2 18 -42 36 -37 44 12 5 32 9 39 16 28 5 -8 10 -25 10 -37 0 -14 6 -23
16 -23 13 0 15 7 10 33 -3 17 -8 51 -12 75 -5 30 -11 42 -24 42 -9 0 -20 -3
-23 -7z m-107 -63 l0 -30 -20 20 c-11 11 -28 20 -37 20 -15 0 -16 2 -3 10 8 5
25 10 38 10 18 0 22 -6 22 -30z"/>
</g>
</svg>
